<svg xmlns:xlink="http://www.w3.org/1999/xlink" viewBox="0 0 3979.46 2045.06" style="shape-rendering:geometricPrecision; text-rendering:geometricPrecision; image-rendering:optimizeQuality; fill-rule:evenodd; clip-rule:evenodd" version="1.1" height="21.2276mm" width="41.3066mm" xml:space="preserve" xmlns="http://www.w3.org/2000/svg">
 <defs>
  <style type="text/css">
   
    .fil0 {fill:black}
    .fil3 {fill:black}
    .fil1 {fill:#009EE2}
    .fil2 {fill:#009EE2;fill-rule:nonzero}
   
  </style>
 </defs>
 <g id="Layer_x0020_1">
  <metadata id="CorelCorpID_0Corel-Layer"></metadata>
  <path d="M1372.82 691c115.41,0 102.55,37.14 102.55,127.65 0,79.35 4.08,148.56 4.08,230.61 0,65.71 -4.28,117.29 -4.08,181.21 0.3,70.49 -11.24,94.69 -102.55,94.69 0,34.55 -4.18,3.08 0,53.47l213.38 0c68.3,0.1 61.63,11.85 61.63,-53.47 -26.09,0 -57.85,-1.19 -78.06,-12.35 -45.2,-25.19 -28.67,-138.9 -28.67,-205.91 0,-104.36 0,-208.6 0,-312.95l103.95 216.86c11.65,25.19 24.89,47.29 35.54,71.4l135.52 296.42 41.02 0c5.58,-23.9 22.7,-53.17 32.96,-74.09l117.5 -256.78c20.4,-42.52 108.13,-239.57 120.47,-253.81 0,80.35 4.59,401.26 -0.1,465.19 -1.7,23.1 -7.87,43.31 -25.59,52.57 -23.5,12.25 -52.68,13.45 -81.05,13.45 0,37.74 -5.18,53.47 12.34,53.47l361.24 0 0 -53.47c-72.29,0 -106.74,-12.95 -106.74,-82.35l0 -473.55c0,-68.71 40.93,-78.27 106.74,-78.27l0 -53.56 -258.59 0c-12.65,0 -29.77,46.1 -35.25,59.44 -10.25,24.99 -20.91,42.42 -29.87,64.72 -21.11,52.07 -174.15,360.34 -181.21,390.61l-217.56 -452.94c-6.68,-13.44 -20.81,-61.83 -36.94,-61.83l-262.77 0 0 53.56 0.1 0zm0 0z" class="fil0"></path>
  <path d="M3170.75 691c26.69,0.6 65.13,13.64 79.16,27.68 16.72,16.63 23.5,54.77 23.5,87.62l0 432.33c0,27.38 -3.79,53.17 -19.22,67.22 -18.61,17.02 -54.26,19.32 -83.44,19.32 0,36.54 -9.56,12.24 0,53.47l275.01 0 0 -53.47c-133.03,0 -110.32,-66.12 -106.53,-193.47 2.99,-100.86 -0.11,-207.4 -0.11,-308.96 16.53,11.15 16.63,17.82 29.67,31.96l210.69 249.83c20.11,25.59 39.12,47.29 60.14,71.48l149.95 179.03c37.24,38.44 7.37,31.87 79.06,31.87l0 -613.56c0,-75.37 37.54,-82.34 110.83,-82.34l0 -43.71c-1.3,-6.77 -4.59,-9.86 -12.35,-9.86l-266.85 0 0 53.56c120.78,0 102.66,57.76 102.66,164.69 0,90.61 0,181.21 0,271.82l-130.43 -153.33c-10.06,-12.45 -16.03,-19.22 -26.48,-31.07l-156.03 -185.3c-18.42,-22.7 -34.15,-40.03 -53.36,-61.63 -13.84,-15.73 -42.02,-58.65 -56.46,-58.65l-209.39 0 0 53.47zm0 0z" class="fil0"></path>
  <path d="M2444.2 649.77l0 41.22c53.36,0 106.73,8.56 106.73,61.73l0 506.52c0,63.92 -58.34,65.92 -106.73,65.92l0 53.47 660.84 0 5.08 -247.03 -54.27 0c-0.6,24 -12.94,61.63 -19.91,78.96 -37.44,93.99 -104.14,106.34 -197.64,106.34 -24,0 -73.49,-4.59 -91.71,-11.05 -27.58,-9.76 -34.85,-36.54 -35.74,-71.2 -1.7,-68.9 0.19,-140.79 0.19,-210.1 37.54,-3.18 99.17,-10.55 138.51,9.27 41.52,20.81 11.25,81.24 37.93,81.24l45.21 0 0 -247.03 -57.46 0c0,105.94 -46.49,90.61 -164.19,90.61l0 -255.29 180.52 0c42.02,0 69.7,17.62 88.72,42.81 27.98,36.74 24.99,88.91 46.8,88.91 46.59,0 41.92,4.29 41.21,-41.21 -0.49,-38.64 -8.36,-99.77 -8.36,-156.43l-603.49 0c-9.46,0 -12.24,2.89 -12.24,12.34zm0 0z" class="fil0"></path>
  <path d="M242.15 773.24c-2.99,4.37 -0.2,-1.4 -4.29,7.96 -25.48,57.55 -14.23,72.69 -90.11,132.03 -9.86,7.76 -22.21,16.83 -31.76,25.79 -32.16,30.07 -66.72,48.19 -66.72,122.47 0,34.75 9.07,57.55 21.71,81.15 9.65,17.82 33.35,44.61 56.25,46.5 -15.64,-29.58 -60.54,-90.11 -8.96,-132.52 92.79,-76.57 128.55,45.6 160.91,54.26 -8.77,-18.31 -8.27,-69.5 -8.27,-94.68 0,-67.31 80.35,-102.96 119.09,-102.96 0,124.36 -4.18,236.18 -4.18,358.25 0,105.65 -0.2,165.79 -114.41,202.33 -13.33,4.28 -25.48,5.27 -33.35,15.92 41.52,0 97.58,17.73 129.74,30.47 62.93,24.99 133.03,110.13 137.11,183.6 8.06,142.88 -21.41,249.82 -165.79,307.28 -38.33,15.23 -144.17,28.87 -188.38,-22 -33.56,-38.63 -47.2,-153.44 62.73,-153.44 23.4,0 51.78,24.69 60.44,42.32 18.03,36.84 1.99,47.99 1.1,85.33 48.49,-1.1 82.14,-54.27 82.14,-107.04 0,-69.6 -2.89,-91.2 -56.36,-145.27 -103.15,-104.14 -300.79,-26.39 -300.79,124.66 0,191.27 237.37,259.28 396.98,171.66l55.76 -42.81c86.93,-87.02 117.89,-234.79 117.89,-384.14l0 -922.31c0,-22.01 -2.09,-30.57 -3.68,-46.11 -1.49,-15.13 8.16,-111.51 14.43,-132.52 24.89,-83.74 64.12,-85.43 91.91,-109.62 -40.03,-5.97 -47,-7.07 -92.1,2.29 -17.82,3.78 -34.35,9.75 -48.99,16.82 -36.05,17.43 -49.19,29.87 -75.48,55.96 -23,22.7 -38.93,49.09 -49.88,81.84 -14.73,44.41 -16.03,61.44 -16.63,119.09 -0.3,24.2 -4.48,33.85 -4.37,61.54l0.19 131.93c0.3,31.26 3.79,36.74 -19.71,46.1 -44.11,17.62 -67.31,23.1 -92,-8.36 -20.31,-25.79 -23.7,-67.41 -32.06,-103.75l-0.1 0zm0 0z" class="fil1"></path>
  <path d="M320.21 213.26c0,106.14 66.51,160.61 168.27,160.61 64.42,0 143.68,-66.81 143.68,-127.65 0,-31.67 2.29,-58.84 -10.95,-87.82 -15.13,-32.66 -30.76,-31.56 -50.58,-31.56 0.3,16.22 4.08,18.12 4.08,49.38 0,83.44 -147.26,98.18 -159.62,15.93 -34.85,-231.5 340.83,-233.3 432.33,-13.64 13.04,31.17 26.98,67.41 26.98,108.93l0 555.9c0,12.64 -12.05,16.43 -24.69,16.43l-168.28 0c-44.61,0 -26.69,-66.21 -26.69,-102.96l-2.09 -189.38c0,-48.79 2.59,-90.41 38.44,-105.64 19.51,-8.36 37.74,-9.86 57.25,-2.89 47.89,17.13 40.82,92 -13.55,92 -36.04,0 -33.46,-53.47 -12.35,-53.47 26.19,0 19.91,14.93 41.02,20.51 0,-17.03 2.7,-16.83 -4.78,-28.08 -14.43,-21.5 -46.1,-13.34 -58.04,-1.98 -24.99,23.89 -25.1,83.63 46.4,83.63 34.95,0 61.44,-43.21 54.66,-75.08 -21.91,-103.65 -169.57,-75.07 -169.57,38.03l0 1049.97c0,44.11 29.67,78.76 74.88,89.82 27.19,6.67 41.72,2.99 61.64,-10.56 52.07,-35.55 40.63,-124.46 -29.77,-124.46 -60.65,0 -58.65,70.4 -32.06,93.89 13.34,11.75 25.49,8.96 48.49,8.96 -8.77,32.77 -98.48,24.8 -102.66,-65.81l4.29 -378.97c-0.11,-24.79 -4.18,-29.87 -4.38,-53.27 -0.5,-38.24 0.2,-77.06 0.1,-115.4 -0.1,-96.99 16.14,-72.89 106.94,-70.2 78.17,2.2 123.67,-34.35 123.07,53.57l-0.11 263.65c0,145.97 -18.52,339.04 142.19,388.62 64.33,19.91 18.32,-5.67 120.58,-83.83l72.69 -63.04c10.86,-9.15 10.36,-12.24 18.82,-22.3 7.97,-9.56 13.94,-13.14 21.81,-23.39 45.11,-59.75 19.61,-94.99 18.03,-113.71l-8.27 0c-2.39,28.87 -21.51,69.6 -36.15,87.32 -19.41,23.59 -82.94,58.25 -132.03,27.88 -7.36,-4.49 -23.8,-16.83 -29.66,-23.81 -17.43,-20.91 -23.81,-50.08 -23.81,-87.32l0 -374.67c0,-48.2 46.3,-24.2 97.58,-79.16 52.57,-56.46 65.52,-178.13 25.59,-204.91 0,38.14 -6.37,84.13 -20.41,107.14 -5.27,8.46 -24.88,24.39 -34.64,31.07 -23.1,16.02 -68.11,30.07 -68.11,-2.4l0 -432.32c0,-56.16 69.1,-94.09 106.74,-102.96l0 -8.17c-59.14,0 -112.22,-20.01 -152.84,-56.65 -79.65,-71.89 -107.93,-139.3 -220.65,-198.75 -109.72,-57.84 -263.96,-53.36 -364.72,13.15 -45.7,30.16 -95.09,85.83 -95.09,159.81zm0 0z" class="fil1"></path>
  <path d="M1473.24 1524.94l57.73 0 0 -35.92c0,-6.34 -0.4,-10.5 -1.18,-12.5 -0.63,-1.51 -1.92,-2.82 -3.89,-3.92 -2.63,-1.47 -5.42,-2.2 -8.36,-2.2l-4.42 0 0 -3.38 53.4 0 0 3.38 -4.41 0c-2.95,0 -5.74,0.69 -8.37,2.1 -1.97,0.97 -3.32,2.45 -4.01,4.42 -0.72,1.97 -1.07,6.02 -1.07,12.1l0 80.67c0,6.3 0.4,10.47 1.19,12.48 0.63,1.53 1.88,2.85 3.79,3.95 2.7,1.47 5.52,2.2 8.47,2.2l4.41 0 0 3.38 -53.4 0 0 -3.38 4.42 0c5.11,0 8.81,-1.5 11.16,-4.49 1.53,-1.97 2.28,-6.67 2.28,-14.13l0 -37.99 -57.73 0 0 37.99c0,6.3 0.4,10.47 1.19,12.48 0.59,1.53 1.88,2.85 3.85,3.95 2.63,1.47 5.39,2.2 8.33,2.2l4.48 0 0 3.38 -53.4 0 0 -3.38 4.42 0c5.16,0 8.89,-1.5 11.24,-4.49 1.47,-1.97 2.2,-6.67 2.2,-14.13l0 -80.67c0,-6.34 -0.4,-10.5 -1.18,-12.5 -0.64,-1.51 -1.89,-2.82 -3.8,-3.92 -2.7,-1.47 -5.52,-2.2 -8.46,-2.2l-4.42 0 0 -3.38 53.4 0 0 3.38 -4.48 0c-2.95,0 -5.7,0.69 -8.33,2.1 -1.92,0.97 -3.23,2.45 -3.95,4.42 -0.72,1.97 -1.1,6.02 -1.1,12.1l0 35.92zm136.36 -51.15l0 49.27 27.46 0c7.12,0 11.85,-1.07 14.23,-3.2 3.2,-2.82 4.95,-7.77 5.33,-14.86l3.39 0 0 43.44 -3.39 0c-0.85,-6.08 -1.72,-10 -2.57,-11.72 -1.09,-2.13 -2.91,-3.82 -5.41,-5.05 -2.51,-1.22 -6.37,-1.85 -11.57,-1.85l-27.46 0 0 41.12c0,5.52 0.25,8.87 0.72,10.07 0.5,1.18 1.35,2.16 2.57,2.85 1.22,0.72 3.57,1.06 6.99,1.06l21.09 0c7.02,0 12.13,-0.5 15.33,-1.47 3.16,-0.96 6.23,-2.91 9.15,-5.79 3.79,-3.8 7.68,-9.53 11.66,-17.18l3.76 0 -10.75 31.21 -96.06 0 0 -3.38 4.42 0c2.95,0 5.73,-0.72 8.37,-2.14 1.97,-0.96 3.32,-2.44 4.01,-4.41 0.72,-1.97 1.07,-5.99 1.07,-12.07l0 -81.04c0,-7.9 -0.79,-12.76 -2.39,-14.58 -2.23,-2.45 -5.89,-3.67 -11.06,-3.67l-4.42 0 0 -3.38 96.1 0 1.31 27.46 -3.57 0c-1.28,-6.62 -2.69,-11.16 -4.26,-13.63 -1.57,-2.48 -3.88,-4.36 -6.93,-5.67 -2.45,-0.92 -6.77,-1.38 -12.95,-1.38l-34.16 0zm161.73 76.34l-48.3 0 -8.34 19.53c-2.06,4.83 -3.13,8.46 -3.13,10.85 0,1.88 0.92,3.56 2.73,5.01 1.79,1.42 5.7,2.35 11.7,2.79l0 3.38 -39.31 0 0 -3.38c5.2,-0.92 8.55,-2.1 10.1,-3.57 3.13,-2.95 6.58,-8.93 10.37,-17.93l43.85 -102.61 3.1 0 43.34 103.71c3.48,8.33 6.65,13.73 9.5,16.23 2.85,2.48 6.79,3.85 11.91,4.17l0 3.38 -49.14 0 0 -3.38c4.95,-0.25 8.3,-1.07 10.06,-2.48 1.75,-1.42 2.6,-3.14 2.6,-5.17 0,-2.7 -1.22,-6.96 -3.67,-12.78l-7.36 -17.75zm-2.82 -6.76l-20.99 -50.31 -21.57 50.31 42.56 0zm179.64 48.32l-33.37 0 -42.34 -58.3c-3.04,0.13 -5.52,0.19 -7.43,0.19 -0.79,0 -1.63,-0.04 -2.51,-0.07 -0.91,-0.03 -1.81,-0.06 -2.78,-0.13l0 36.29c0,7.84 0.85,12.7 2.57,14.58 2.31,2.7 5.8,4.05 10.43,4.05l4.86 0 0 3.38 -53.4 0 0 -3.38 4.67 0c5.26,0 9.02,-1.72 11.28,-5.14 1.28,-1.88 1.91,-6.4 1.91,-13.48l0 -80.67c0,-7.84 -0.85,-12.7 -2.57,-14.58 -2.38,-2.7 -5.92,-4.05 -10.62,-4.05l-4.67 0 0 -3.38 45.38 0c13.26,0 23.01,0.97 29.28,2.88 6.3,1.95 11.63,5.52 15.98,10.69 4.38,5.16 6.58,11.34 6.58,18.52 0,7.68 -2.5,14.33 -7.49,19.96 -5.02,5.65 -12.73,9.62 -23.23,11.98l25.79 35.69c5.9,8.22 10.94,13.7 15.17,16.4 4.2,2.73 9.71,4.42 16.51,5.17l0 3.38zm-88.44 -64.12c1.16,0 2.16,0 3.01,0.03 0.85,0.04 1.54,0.07 2.07,0.07 11.75,0 20.63,-2.57 26.58,-7.71 5.98,-5.17 8.96,-11.72 8.96,-19.68 0,-7.77 -2.41,-14.1 -7.21,-19 -4.83,-4.86 -11.22,-7.3 -19.15,-7.3 -3.51,0 -8.28,0.57 -14.26,1.7l0 51.9zm184.29 -60.55l1.31 29.31 -3.48 0c-0.69,-5.14 -1.6,-8.84 -2.76,-11.04 -1.92,-3.54 -4.42,-6.17 -7.59,-7.83 -3.16,-1.69 -7.3,-2.53 -12.44,-2.53l-17.55 0 0 95.15c0,7.68 0.82,12.48 2.48,14.39 2.32,2.56 5.9,3.85 10.72,3.85l4.29 0 0 3.38 -53.03 0 0 -3.38 4.48 0c5.33,0 9.09,-1.6 11.35,-4.8 1.35,-1.97 2.03,-6.45 2.03,-13.45l0 -95.15 -14.94 0c-5.83,0 -9.97,0.43 -12.42,1.28 -3.19,1.16 -5.89,3.38 -8.18,6.71 -2.25,3.29 -3.6,7.77 -4.04,13.42l-3.48 0 1.31 -29.31 101.93 0zm145.7 44.37l38.56 0 0 3.57c-5.33,0.44 -9.25,1.6 -11.79,3.52 -2.53,1.91 -6.51,7.74 -11.91,17.42 -5.39,9.69 -11.46,18.75 -18.21,27.15 5.45,6.36 10.31,10.81 14.61,13.34 4.27,2.54 8.58,3.82 12.95,3.82 4.23,0 7.8,-1.16 10.71,-3.45 2.95,-2.28 5.05,-5.66 6.27,-10.15l3.38 2.51c-2.25,8.61 -5.89,15.01 -10.93,19.18 -5.02,4.13 -10.85,6.2 -17.52,6.2 -5.01,0 -10.09,-1.38 -15.26,-4.1 -5.17,-2.76 -10.81,-7.4 -16.96,-13.95 -7.58,6.8 -14.41,11.5 -20.53,14.1 -6.08,2.63 -12.6,3.95 -19.52,3.95 -10.1,0 -18.12,-2.7 -24.08,-8.09 -5.92,-5.39 -8.9,-11.84 -8.9,-19.34 0,-7.39 2.67,-14.79 8.03,-22.19 5.36,-7.4 15.39,-15.04 30.15,-22.94 -2.92,-6.37 -4.89,-11.6 -5.96,-15.67 -1.03,-4.08 -1.56,-7.96 -1.56,-11.69 0,-10.47 3.85,-18.46 11.56,-23.98 6.02,-4.3 12.85,-6.43 20.5,-6.43 7.3,0 13.26,2.17 17.83,6.45 4.61,4.33 6.9,9.62 6.9,15.92 0,6.48 -2.23,12.16 -6.68,17.05 -4.45,4.88 -12.32,10.24 -23.6,16.04 7.77,13.82 15.89,26.51 24.32,38.08 10.79,-12.85 16.18,-23.66 16.18,-32.41 0,-2.78 -0.91,-5.26 -2.73,-7.46 -1.35,-1.63 -3.29,-2.6 -5.8,-2.92l0 -3.57zm-35.07 2.39c7.58,-3.6 13.26,-7.72 17.01,-12.29 3.77,-4.58 5.65,-9.68 5.65,-15.29 0,-4.42 -1.35,-8.05 -4.08,-10.94 -2.7,-2.85 -6.08,-4.29 -10.09,-4.29 -5.34,0 -9.34,1.85 -12.04,5.55 -2.73,3.69 -4.08,7.3 -4.08,10.87 0,2.99 0.5,6.34 1.54,10.03 1.03,3.7 3.07,9.15 6.08,16.37zm14.2 57.35c-8.05,-11 -13.64,-19.06 -16.74,-24.13 -3.1,-5.08 -6.51,-11.38 -10.24,-18.9 -7.4,4.24 -12.95,8.9 -16.68,13.98 -3.73,5.12 -5.61,10.63 -5.61,16.58 0,6.55 2.1,12.35 6.33,17.3 4.23,4.98 9.93,7.46 17.11,7.46 3.85,0 7.58,-0.78 11.16,-2.32 3.6,-1.56 8.5,-4.88 14.67,-9.96zm204.37 -106.94l0 43.06 -3.38 0c-1.1,-8.28 -3.07,-14.86 -5.92,-19.75 -2.85,-4.88 -6.93,-8.77 -12.23,-11.66 -5.26,-2.88 -10.71,-4.33 -16.36,-4.33 -6.4,0 -11.66,1.95 -15.83,5.83 -4.16,3.89 -6.26,8.34 -6.26,13.29 0,3.79 1.31,7.27 3.95,10.4 3.82,4.58 12.84,10.71 27.14,18.36 11.66,6.27 19.61,11.07 23.88,14.38 4.26,3.35 7.55,7.27 9.84,11.82 2.29,4.55 3.45,9.28 3.45,14.26 0,9.43 -3.67,17.55 -10.97,24.38 -7.33,6.83 -16.76,10.25 -28.27,10.25 -3.63,0 -7.02,-0.28 -10.21,-0.85 -1.92,-0.32 -5.84,-1.45 -11.82,-3.38 -5.95,-1.95 -9.75,-2.92 -11.35,-2.92 -1.53,0 -2.76,0.47 -3.63,1.38 -0.88,0.94 -1.53,2.85 -1.97,5.77l-3.38 0 0 -42.69 3.38 0c1.6,8.93 3.73,15.64 6.43,20.06 2.7,4.45 6.83,8.15 12.38,11.06 5.55,2.95 11.63,4.42 18.24,4.42 7.65,0 13.73,-2.03 18.15,-6.08 4.45,-4.08 6.68,-8.87 6.68,-14.38 0,-3.07 -0.85,-6.18 -2.5,-9.31 -1.7,-3.14 -4.3,-6.05 -7.84,-8.78 -2.38,-1.85 -8.93,-5.74 -19.61,-11.7 -10.68,-5.92 -18.3,-10.68 -22.81,-14.23 -4.52,-3.54 -7.97,-7.49 -10.28,-11.75 -2.35,-4.29 -3.52,-9.03 -3.52,-14.16 0,-8.93 3.45,-16.65 10.31,-23.1 6.87,-6.45 15.65,-9.68 26.23,-9.68 6.65,0 13.67,1.63 21.1,4.86 3.45,1.54 5.86,2.29 7.26,2.29 1.6,0 2.92,-0.47 3.92,-1.42 1,-0.96 1.82,-2.85 2.45,-5.73l3.38 0zm86.98 0c16.14,0 30.14,6.15 41.97,18.43 11.85,12.28 17.77,27.61 17.77,46.01 0,18.93 -5.95,34.62 -17.89,47.13 -11.91,12.5 -26.36,18.75 -43.31,18.75 -17.11,0 -31.49,-6.12 -43.16,-18.3 -11.66,-12.2 -17.49,-27.96 -17.49,-47.32 0,-19.78 6.74,-35.92 20.18,-48.42 11.7,-10.85 25.67,-16.27 41.94,-16.27zm-1.75 6.58c-11.1,0 -20.03,4.14 -26.73,12.42 -8.37,10.31 -12.57,25.39 -12.57,45.25 0,20.34 4.33,36.01 13.01,46.98 6.68,8.33 15.45,12.5 26.4,12.5 11.69,0 21.31,-4.58 28.92,-13.7 7.62,-9.15 11.41,-23.54 11.41,-43.22 0,-21.35 -4.2,-37.26 -12.56,-47.74 -6.71,-8.33 -15.98,-12.5 -27.86,-12.5zm176.79 86.5l3.01 0.66 -10.71 33.76 -96.47 0 0 -3.38 4.67 0c5.27,0 9.03,-1.7 11.28,-5.12 1.29,-1.94 1.92,-6.45 1.92,-13.51l0 -80.67c0,-7.77 -0.85,-12.63 -2.57,-14.58 -2.38,-2.7 -5.92,-4.05 -10.63,-4.05l-4.67 0 0 -3.38 56.42 0 0 3.38c-6.61,-0.06 -11.25,0.54 -13.95,1.82 -2.66,1.25 -4.48,2.88 -5.45,4.8 -0.96,1.94 -1.47,6.58 -1.47,13.88l0 78.6c0,5.11 0.51,8.58 1.47,10.5 0.72,1.31 1.89,2.25 3.42,2.88 1.5,0.6 6.3,0.91 14.35,0.91l9.08 0c9.6,0 16.3,-0.68 20.15,-2.1 3.85,-1.41 7.4,-3.91 10.6,-7.49 3.16,-3.57 6.36,-9.22 9.56,-16.93zm46.22 -83.49l0 49.27 27.46 0c7.12,0 11.85,-1.07 14.23,-3.2 3.2,-2.82 4.95,-7.77 5.33,-14.86l3.39 0 0 43.44 -3.39 0c-0.85,-6.08 -1.72,-10 -2.57,-11.72 -1.09,-2.13 -2.91,-3.82 -5.41,-5.05 -2.51,-1.22 -6.37,-1.85 -11.57,-1.85l-27.46 0 0 41.12c0,5.52 0.25,8.87 0.72,10.07 0.5,1.18 1.35,2.16 2.57,2.85 1.22,0.72 3.57,1.06 6.99,1.06l21.09 0c7.02,0 12.13,-0.5 15.33,-1.47 3.16,-0.96 6.23,-2.91 9.15,-5.79 3.79,-3.8 7.68,-9.53 11.66,-17.18l3.76 0 -10.75 31.21 -96.06 0 0 -3.38 4.42 0c2.95,0 5.73,-0.72 8.37,-2.14 1.97,-0.96 3.32,-2.44 4.01,-4.41 0.72,-1.97 1.07,-5.99 1.07,-12.07l0 -81.04c0,-7.9 -0.79,-12.76 -2.39,-14.58 -2.23,-2.45 -5.89,-3.67 -11.06,-3.67l-4.42 0 0 -3.38 96.1 0 1.31 27.46 -3.57 0c-1.28,-6.62 -2.69,-11.16 -4.26,-13.63 -1.57,-2.48 -3.88,-4.36 -6.93,-5.67 -2.45,-0.92 -6.77,-1.38 -12.95,-1.38l-34.16 0zm161.13 0l0 48.89 22.57 0c5.23,0 9.08,-1.14 11.5,-3.39 2.44,-2.28 4.04,-6.83 4.86,-13.73l3.38 0 0 42.31 -3.38 0c-0.07,-4.83 -0.69,-8.4 -1.88,-10.66 -1.22,-2.28 -2.89,-3.98 -5.02,-5.11 -2.13,-1.17 -5.26,-1.72 -9.46,-1.72l-22.57 0 0 39.3c0,6.3 0.41,10.47 1.19,12.48 0.6,1.53 1.88,2.85 3.82,3.95 2.66,1.47 5.45,2.2 8.4,2.2l4.45 0 0 3.38 -53.41 0 0 -3.38 4.42 0c5.17,0 8.9,-1.5 11.25,-4.49 1.47,-1.97 2.2,-6.67 2.2,-14.13l0 -80.67c0,-6.3 -0.41,-10.47 -1.19,-12.48 -0.63,-1.54 -1.88,-2.85 -3.8,-3.95 -2.63,-1.47 -5.45,-2.2 -8.46,-2.2l-4.42 0 0 -3.38 92.52 0 1.31 27.46 -3.2 0c-1.59,-5.87 -3.44,-10.15 -5.54,-12.88 -2.14,-2.73 -4.74,-4.74 -7.8,-5.95 -3.1,-1.22 -7.87,-1.85 -14.35,-1.85l-27.4 0zm134.74 -9.6c16.14,0 30.14,6.15 41.97,18.43 11.85,12.28 17.77,27.61 17.77,46.01 0,18.93 -5.95,34.62 -17.89,47.13 -11.91,12.5 -26.36,18.75 -43.31,18.75 -17.11,0 -31.49,-6.12 -43.16,-18.3 -11.66,-12.2 -17.49,-27.96 -17.49,-47.32 0,-19.78 6.74,-35.92 20.18,-48.42 11.7,-10.85 25.67,-16.27 41.94,-16.27zm-1.75 6.58c-11.1,0 -20.03,4.14 -26.73,12.42 -8.37,10.31 -12.57,25.39 -12.57,45.25 0,20.34 4.33,36.01 13.01,46.98 6.68,8.33 15.45,12.5 26.4,12.5 11.69,0 21.31,-4.58 28.92,-13.7 7.62,-9.15 11.41,-23.54 11.41,-43.22 0,-21.35 -4.2,-37.26 -12.56,-47.74 -6.71,-8.33 -15.98,-12.5 -27.86,-12.5zm137.55 -6.58c16.14,0 30.14,6.15 41.97,18.43 11.85,12.28 17.77,27.61 17.77,46.01 0,18.93 -5.95,34.62 -17.89,47.13 -11.91,12.5 -26.36,18.75 -43.31,18.75 -17.11,0 -31.49,-6.12 -43.16,-18.3 -11.66,-12.2 -17.49,-27.96 -17.49,-47.32 0,-19.78 6.74,-35.92 20.18,-48.42 11.7,-10.85 25.67,-16.27 41.94,-16.27zm-1.75 6.58c-11.1,0 -20.03,4.14 -26.73,12.42 -8.37,10.31 -12.57,25.39 -12.57,45.25 0,20.34 4.33,36.01 13.01,46.98 6.68,8.33 15.45,12.5 26.4,12.5 11.69,0 21.31,-4.58 28.92,-13.7 7.62,-9.15 11.41,-23.54 11.41,-43.22 0,-21.35 -4.2,-37.26 -12.56,-47.74 -6.71,-8.33 -15.98,-12.5 -27.86,-12.5zm177.74 -3.76l1.31 29.31 -3.48 0c-0.69,-5.14 -1.6,-8.84 -2.76,-11.04 -1.92,-3.54 -4.42,-6.17 -7.59,-7.83 -3.16,-1.69 -7.3,-2.53 -12.44,-2.53l-17.55 0 0 95.15c0,7.68 0.82,12.48 2.48,14.39 2.32,2.56 5.9,3.85 10.72,3.85l4.29 0 0 3.38 -53.03 0 0 -3.38 4.48 0c5.33,0 9.09,-1.6 11.35,-4.8 1.35,-1.97 2.03,-6.45 2.03,-13.45l0 -95.15 -14.94 0c-5.83,0 -9.97,0.43 -12.42,1.28 -3.19,1.16 -5.89,3.38 -8.18,6.71 -2.25,3.29 -3.6,7.77 -4.04,13.42l-3.48 0 1.31 -29.31 101.93 0zm181.9 0l0 3.38c-3.23,0 -5.86,0.6 -7.9,1.75 -2,1.17 -3.95,3.32 -5.76,6.52 -1.22,2.13 -3.17,7.27 -5.8,15.36l-34.61 100.48 -3.7 0 -28.39 -79.73 -28.05 79.73 -3.35 0 -36.92 -103.43c-2.76,-7.76 -4.51,-12.34 -5.23,-13.76 -1.22,-2.35 -2.88,-4.08 -5.02,-5.2 -2.1,-1.16 -4.95,-1.72 -8.58,-1.72l0 -3.38 46.01 0 0 3.38 -2.23 0c-3.23,0 -5.7,0.75 -7.43,2.23 -1.72,1.47 -2.57,3.27 -2.57,5.33 0,2.17 1.35,7.12 4.05,14.89l24.54 69.91 20.71 -59.42 -3.76 -10.46 -2.95 -8.4c-1.28,-3.1 -2.73,-5.8 -4.3,-8.15 -0.81,-1.16 -1.78,-2.16 -2.95,-2.98 -1.53,-1.1 -3.06,-1.91 -4.61,-2.38 -1.16,-0.38 -3.01,-0.57 -5.51,-0.57l0 -3.38 48.42 0 0 3.38 -3.32 0c-3.42,0 -5.92,0.75 -7.52,2.23 -1.6,1.47 -2.38,3.48 -2.38,6.02 0,3.13 1.38,8.65 4.13,16.48l23.92 67.67 23.66 -68.64c2.7,-7.65 4.04,-12.94 4.04,-15.89 0,-1.42 -0.43,-2.76 -1.31,-3.98 -0.92,-1.22 -2,-2.1 -3.35,-2.6 -2.35,-0.85 -5.37,-1.29 -9.09,-1.29l0 -3.38 37.11 0zm40.87 6.77l0 49.27 27.46 0c7.12,0 11.85,-1.07 14.23,-3.2 3.2,-2.82 4.95,-7.77 5.33,-14.86l3.39 0 0 43.44 -3.39 0c-0.85,-6.08 -1.72,-10 -2.57,-11.72 -1.09,-2.13 -2.91,-3.82 -5.41,-5.05 -2.51,-1.22 -6.37,-1.85 -11.57,-1.85l-27.46 0 0 41.12c0,5.52 0.25,8.87 0.72,10.07 0.5,1.18 1.35,2.16 2.57,2.85 1.22,0.72 3.57,1.06 6.99,1.06l21.09 0c7.02,0 12.13,-0.5 15.33,-1.47 3.16,-0.96 6.23,-2.91 9.15,-5.79 3.79,-3.8 7.68,-9.53 11.66,-17.18l3.76 0 -10.75 31.21 -96.06 0 0 -3.38 4.42 0c2.95,0 5.73,-0.72 8.37,-2.14 1.97,-0.96 3.32,-2.44 4.01,-4.41 0.72,-1.97 1.07,-5.99 1.07,-12.07l0 -81.04c0,-7.9 -0.79,-12.76 -2.39,-14.58 -2.23,-2.45 -5.89,-3.67 -11.06,-3.67l-4.42 0 0 -3.38 96.1 0 1.31 27.46 -3.57 0c-1.28,-6.62 -2.69,-11.16 -4.26,-13.63 -1.57,-2.48 -3.88,-4.36 -6.93,-5.67 -2.45,-0.92 -6.77,-1.38 -12.95,-1.38l-34.16 0zm161.73 76.34l-48.3 0 -8.34 19.53c-2.06,4.83 -3.13,8.46 -3.13,10.85 0,1.88 0.92,3.56 2.73,5.01 1.79,1.42 5.7,2.35 11.7,2.79l0 3.38 -39.31 0 0 -3.38c5.2,-0.92 8.55,-2.1 10.1,-3.57 3.13,-2.95 6.58,-8.93 10.37,-17.93l43.85 -102.61 3.1 0 43.34 103.71c3.48,8.33 6.65,13.73 9.5,16.23 2.85,2.48 6.79,3.85 11.91,4.17l0 3.38 -49.14 0 0 -3.38c4.95,-0.25 8.3,-1.07 10.06,-2.48 1.75,-1.42 2.6,-3.14 2.6,-5.17 0,-2.7 -1.22,-6.96 -3.67,-12.78l-7.36 -17.75zm-2.82 -6.76l-20.99 -50.31 -21.57 50.31 42.56 0zm179.64 48.32l-33.37 0 -42.34 -58.3c-3.04,0.13 -5.52,0.19 -7.43,0.19 -0.79,0 -1.63,-0.04 -2.51,-0.07 -0.91,-0.03 -1.81,-0.06 -2.78,-0.13l0 36.29c0,7.84 0.85,12.7 2.57,14.58 2.31,2.7 5.8,4.05 10.43,4.05l4.86 0 0 3.38 -53.4 0 0 -3.38 4.67 0c5.26,0 9.02,-1.72 11.28,-5.14 1.28,-1.88 1.91,-6.4 1.91,-13.48l0 -80.67c0,-7.84 -0.85,-12.7 -2.57,-14.58 -2.38,-2.7 -5.92,-4.05 -10.62,-4.05l-4.67 0 0 -3.38 45.38 0c13.26,0 23.01,0.97 29.28,2.88 6.3,1.95 11.63,5.52 15.98,10.69 4.38,5.16 6.58,11.34 6.58,18.52 0,7.68 -2.5,14.33 -7.49,19.96 -5.02,5.65 -12.73,9.62 -23.23,11.98l25.79 35.69c5.9,8.22 10.94,13.7 15.17,16.4 4.2,2.73 9.71,4.42 16.51,5.17l0 3.38zm-88.44 -64.12c1.16,0 2.16,0 3.01,0.03 0.85,0.04 1.54,0.07 2.07,0.07 11.75,0 20.63,-2.57 26.58,-7.71 5.98,-5.17 8.96,-11.72 8.96,-19.68 0,-7.77 -2.41,-14.1 -7.21,-19 -4.83,-4.86 -11.22,-7.3 -19.15,-7.3 -3.51,0 -8.28,0.57 -14.26,1.7l0 51.9z" class="fil2"></path>
  <polygon points="1372.82,1414.04 3915.33,1414.04 3915.33,1420.91 1372.82,1420.91" class="fil3"></polygon>
 </g>
</svg>
